<?xml version="1.0" ?><!DOCTYPE svg  PUBLIC '-//W3C//DTD SVG 1.1//EN'  'http://www.w3.org/Graphics/SVG/1.1/DTD/svg11.dtd'><svg enable-background="new 0 0 24 24" height="24px" id="Layer_1" version="1.1" viewBox="0 0 24 24" width="24px" xml:space="preserve" xmlns="http://www.w3.org/2000/svg" xmlns:xlink="http://www.w3.org/1999/xlink"><path d="M19.2,15.968c-0.579-0.616-0.871-1.354-0.871-1.354L12.753,0h-1.348L5.618,14.74c0,0-0.349,0.694-0.75,1.097  c-0.401,0.404-1.214,0.756-1.214,0.756v0.97h5.287v-0.97c-1.074,0-2.244-0.438-1.743-1.747c0.394-1.037,0.992-2.573,1.226-3.174  h5.866c0.253,0.687,0.924,2.509,1.097,2.986c0.293,0.805-0.073,1.935-1.158,1.935v0.97h6.042v-0.97  C20.27,16.593,19.779,16.583,19.2,15.968 M11.495,3.237l2.263,6.472H8.991L11.495,3.237z M22.308,23.019  c0,0.538-0.443,0.981-0.981,0.981H2.672c-0.541,0-0.981-0.443-0.981-0.981v-1.964c0-0.541,0.441-0.981,0.981-0.981h18.654  c0.539,0,0.981,0.44,0.981,0.981V23.019z"/></svg>