<?xml version="1.0" ?><svg id="Layer_1" style="enable-background:new 0 0 400 400;" version="1.1" viewBox="0 0 400 400" xml:space="preserve" xmlns="http://www.w3.org/2000/svg" xmlns:xlink="http://www.w3.org/1999/xlink"><style type="text/css">
	.st0{fill:#FFFFFF;}
	.st1{fill:#333333;}
	.st2{fill:none;stroke:#333333;stroke-width:10;stroke-miterlimit:10;}
	.st3{fill:none;stroke:#333333;stroke-width:20;stroke-miterlimit:10;}
	.st4{fill:none;stroke:#333333;stroke-width:10;stroke-linecap:round;stroke-linejoin:round;stroke-miterlimit:10;}
</style><g><path class="st1" d="M343.3,102.7l-48.1-48.1c-1.9-1.9-4.4-2.9-7.1-2.9h-191c-23.9,0-43.3,19.4-43.3,43.3v210   c0,23.9,19.4,43.3,43.3,43.3H99v-10v-10h-1.9c-12.8,0-23.3-10.5-23.3-23.3V95c0-12.9,10.5-23.3,23.3-23.3h33.8v74.2   c0,8.5,6.9,15.4,15.4,15.4H260c8.5,0,15.4-6.9,15.4-15.4V71.7h8.6l42.2,42.2V305c0,12.9-10.5,23.3-23.3,23.3H302v10v10h0.9   c23.9,0,43.3-19.4,43.3-43.3V109.8C346.2,107.1,345.1,104.6,343.3,102.7z M251.4,136.5h-40.6V79.2h40.6V136.5z"/><path class="st1" d="M285.5,204.1H115.5c-3.6,0-6.5,2.9-6.5,6.5v117.7v10v9v0.5h183v-0.5v-9v-10V210.6   C292,207.1,289.1,204.1,285.5,204.1z M258.8,309H142.3c-2.8,0-5-2.2-5-5s2.2-5,5-5h116.5c2.8,0,5,2.2,5,5S261.5,309,258.8,309z    M258.8,287.5H142.3c-2.8,0-5-2.2-5-5s2.2-5,5-5h116.5c2.8,0,5,2.2,5,5S261.5,287.5,258.8,287.5z M258.8,265H142.3   c-2.8,0-5-2.2-5-5s2.2-5,5-5h116.5c2.8,0,5,2.2,5,5S261.5,265,258.8,265z"/></g></svg>